<?xml version="1.0" encoding="UTF-8" standalone="no"?>
<svg
   viewBox="0 0 128 128"
   version="1.1"
   id="svg1"
   sodipodi:docname="capacity_chair.svg"
   inkscape:version="1.3 (0e150ed, 2023-07-21)"
   xmlns:inkscape="http://www.inkscape.org/namespaces/inkscape"
   xmlns:sodipodi="http://sodipodi.sourceforge.net/DTD/sodipodi-0.dtd"
   xmlns="http://www.w3.org/2000/svg"
   xmlns:svg="http://www.w3.org/2000/svg">
  <defs
     id="defs1" />
  <sodipodi:namedview
     id="namedview1"
     pagecolor="#ffffff"
     bordercolor="#111111"
     borderopacity="1"
     inkscape:showpageshadow="0"
     inkscape:pageopacity="0"
     inkscape:pagecheckerboard="1"
     inkscape:deskcolor="#d1d1d1"
     inkscape:zoom="1.84375"
     inkscape:cx="64"
     inkscape:cy="64"
     inkscape:window-width="1312"
     inkscape:window-height="431"
     inkscape:window-x="0"
     inkscape:window-y="25"
     inkscape:window-maximized="0"
     inkscape:current-layer="svg1" />
  <path
     d="M103.19,62.86c0.1-0.57-0.14-1.19-0.76-1.5L78.59,50.03c-1.53-0.75-4.79-0.43-4.79-0.43l-0.03-17.22l2.19-0.35 c0.96-0.19,1.71-1.34,1.72-2.83L77.6,8.14c0-0.38-0.12-0.61-0.3-0.77c0,0,0.02-0.01,0.02-0.01c-0.58-0.7-1.17-1.02-3.69-1.67 c-1.19-0.31-2.37-0.6-3.33-0.46c-0.96,0.14-38.72,5.7-38.72,5.7c-1.55,0.3-2.81,1.71-2.82,3.52l0.02,0.78l0,0c0,0,0,0.01,0,0.01 l0.08,19.89c0,0.61-0.08,2.28,1.18,2.69l2.58,0.74v18.06l-1.08,0.18c-1.06,0.15-1.51,0.96-1.41,1.67l-0.05-0.02v3.32 c0,1.45,0,2.38,2.12,3.41l0.34,0.17l1.33,42.93c0.01,1.19,0.91,1.98,2.72,1.98c1.82,0,2.71-0.8,2.71-1.97l1.04-30.83l14.15,6.99 l1.21,37.57c0.01,1.19,0.86,1.98,2.67,1.98c1.82,0,2.69-0.8,2.69-1.97l1.25-36.93l6.05-1.17l0.53,15.44 c0.01,1.19,0.79,1.98,2.61,1.98s2.62-0.8,2.62-1.97l0.58-16.67l17.73-3.41l1.06,33.82c0.01,1.19,0.89,1.98,2.7,1.98 c1.82,0,2.66-0.8,2.66-1.97l1.51-43.73h0.01l0.74-0.14c1.22-0.23,2.1-1.3,2.1-2.54v-3.87L103.19,62.86z M38.98,37.97l28.4-4.56 l-0.04,17.3l-28.36,4.82V37.97z"
     id="path1" />
</svg>
