<?xml version="1.0" encoding="UTF-8" standalone="no"?>
<svg
   viewBox="0 0 128 128"
   version="1.1"
   id="svg2"
   sodipodi:docname="food_near.svg"
   inkscape:version="1.3 (0e150ed, 2023-07-21)"
   xmlns:inkscape="http://www.inkscape.org/namespaces/inkscape"
   xmlns:sodipodi="http://sodipodi.sourceforge.net/DTD/sodipodi-0.dtd"
   xmlns="http://www.w3.org/2000/svg"
   xmlns:svg="http://www.w3.org/2000/svg">
  <defs
     id="defs2" />
  <sodipodi:namedview
     id="namedview2"
     pagecolor="#ffffff"
     bordercolor="#111111"
     borderopacity="1"
     inkscape:showpageshadow="0"
     inkscape:pageopacity="0"
     inkscape:pagecheckerboard="1"
     inkscape:deskcolor="#d1d1d1"
     inkscape:zoom="1.84375"
     inkscape:cx="64"
     inkscape:cy="64"
     inkscape:window-width="1312"
     inkscape:window-height="431"
     inkscape:window-x="562"
     inkscape:window-y="439"
     inkscape:window-maximized="0"
     inkscape:current-layer="svg2" />
  <g
     id="g2">
    <path
       d="M91.08,117.5c-0.49-2.64-1.06-5.01-1.06-6.18c0-2.1-1.37-51.02-1.37-51.02S88.16,9.28,88.16,7.17 c0-1.62,0.17-2.94-0.31-3.45c-0.07-0.11-0.67-0.94-2.79-0.57c-2.49,0.43-7.82,4.48-9.52,14.44c-1.7,9.96-3.36,40.77-2.21,42.79 c2.13,3.74,6.51,6.73,6.61,8.85c0.07,1.58-0.41,38.27-0.76,40.88s-2.22,9.75-2.46,11.56c-0.24,1.79,0.82,3.17,1.93,3.28 c1.51,0.14,5.41,0.2,7.28,0.22l0-0.02C92.03,125.61,92.11,123.05,91.08,117.5z"
       id="path1" />
    <path
       d="M54.45,48.15c-0.02-0.43-1.26-30.72-1.35-31.89c-0.05-0.72-0.41-1.76-1.31-1.72c-0.58,0.02-0.93,0.65-0.93,1.54 c0,1.53-0.54,27.44-0.53,28.89c0.03,2.09-2.35,1.64-2.3,0.1c0.05-1.53-0.17-27.37-0.26-28.7c-0.07-1-0.28-1.65-1.11-1.65 c-0.82,0-1.15,0.62-1.29,1.7c-0.31,2.3-0.56,27.35-0.61,28.73c-0.06,1.72-2.32,1.7-2.32-0.14c0-1.84,0.12-27.16,0.12-28.7 c0-0.81-0.44-1.55-1.22-1.53c-0.66,0.02-1.13,0.76-1.18,1.43c-0.1,1.43-1,27.24-1.07,28.52c-0.11,2.02-2.58,2.07-2.58-0.13 s0.88-26.71,0.93-28.24c0.03-0.96-0.5-1.65-0.93-1.65c-1,0-1.25,1.05-1.37,1.8c-0.26,1.64-2.1,16.09-2.54,21.47 c-0.44,5.38-1.26,15.12,0.35,18.43c1.96,4.01,5.91,4.93,5.91,4.93s-0.66,44.62-1.06,47.54c-0.57,4.2-3.26,11.46-3,13.13 c0.48,3.83,5.33,2.65,8.18,3.1c3.44,0.24,7.42,0,7.88-1.68c0.87-1.67-1.85-9.53-2.27-12.73c-0.42-3.21-0.71-49.03-0.71-49.03 s2.52-0.2,4.51-2.73c1.52-1.93,1.94-5.52,1.98-5.84c0.01,0,0.02,0,0.02,0s0.1-1.24,0.1-2.67C54.49,49.19,54.45,48.15,54.45,48.15 L54.45,48.15z"
       id="path2" />
  </g>
</svg>
