<?xml version="1.0" encoding="UTF-8" standalone="no"?>
<svg
   viewBox="0 0 128 128"
   version="1.1"
   id="svg2"
   sodipodi:docname="search.svg"
   inkscape:version="1.3 (0e150ed, 2023-07-21)"
   xmlns:inkscape="http://www.inkscape.org/namespaces/inkscape"
   xmlns:sodipodi="http://sodipodi.sourceforge.net/DTD/sodipodi-0.dtd"
   xmlns="http://www.w3.org/2000/svg"
   xmlns:svg="http://www.w3.org/2000/svg">
  <defs
     id="defs2" />
  <sodipodi:namedview
     id="namedview2"
     pagecolor="#ffffff"
     bordercolor="#111111"
     borderopacity="1"
     inkscape:showpageshadow="0"
     inkscape:pageopacity="0"
     inkscape:pagecheckerboard="1"
     inkscape:deskcolor="#d1d1d1"
     inkscape:zoom="1.84375"
     inkscape:cx="64"
     inkscape:cy="64"
     inkscape:window-width="1312"
     inkscape:window-height="431"
     inkscape:window-x="4"
     inkscape:window-y="28"
     inkscape:window-maximized="0"
     inkscape:current-layer="svg2" />
  <g
     id="g2">
    <path
       d="M84.08,3.68c-16.72,0-31.13,10.08-37.48,24.48c-7.55,12.66-9.77,28.96,0.97,43.17l-4.28,4.32 c-1.81,0.03-3.19,0.83-3.79,1.31c-1.13,0.9-32.81,30.2-34.6,31.99c-2.2,2.2-0.32,5.97,3.58,9.87c3.9,3.9,8.11,5.65,10.16,3.6 c1.39-1.4,31.92-35.27,31.92-35.27c0.41-0.6,1.01-1.69,1.07-3.13l4.26-4.3c13.84,10.7,30.05,9.56,42.99,3.08 C140.49,66.24,129.45,4.29,84.08,3.68z M84.08,83.58c-21.48,0-38.95-17.47-38.95-38.95c1.83-51.55,76.08-51.54,77.9,0 C123.03,66.11,105.56,83.58,84.08,83.58z"
       id="path1" />
    <path
       d="M84.08,7.64c-20.4,0-37,16.6-37,37c1.74,48.97,72.27,48.96,74,0C121.08,24.24,104.48,7.64,84.08,7.64z M100.46,75.56 C62.93,94.35,30.19,45.21,61.63,17.81c23.64-14.37,54.83,2.82,54.75,30.87C116.39,61.21,111.43,69.66,100.46,75.56z"
       id="path2" />
  </g>
</svg>
