<?xml version="1.0" encoding="UTF-8" standalone="no"?>
<svg
   viewBox="0 0 128 128"
   version="1.1"
   id="svg31"
   sodipodi:docname="tv.svg"
   inkscape:version="1.3 (0e150ed, 2023-07-21)"
   xmlns:inkscape="http://www.inkscape.org/namespaces/inkscape"
   xmlns:sodipodi="http://sodipodi.sourceforge.net/DTD/sodipodi-0.dtd"
   xmlns="http://www.w3.org/2000/svg"
   xmlns:svg="http://www.w3.org/2000/svg">
  <defs
     id="defs31" />
  <sodipodi:namedview
     id="namedview31"
     pagecolor="#ffffff"
     bordercolor="#111111"
     borderopacity="1"
     inkscape:showpageshadow="0"
     inkscape:pageopacity="0"
     inkscape:pagecheckerboard="1"
     inkscape:deskcolor="#d1d1d1"
     inkscape:zoom="4.3543819"
     inkscape:cx="85.431184"
     inkscape:cy="96.569389"
     inkscape:window-width="2048"
     inkscape:window-height="1280"
     inkscape:window-x="0"
     inkscape:window-y="0"
     inkscape:window-maximized="0"
     inkscape:current-layer="svg31" />
  <g
     id="g31"
     transform="translate(0,10.505)">
    <path
       d="M 113.45,4.01 H 14.54 c -1.9,0 -3.44,1.54 -3.44,3.44 v 67 c 0,1.9 1.54,3.44 3.44,3.44 h 43.89 c -0.44,5.97 -1.24,10.41 -2,13.5 -9.18,0.59 -15.99,2.19 -16.88,4.14 -0.02,0 -0.04,0 -0.04,0 0,0 -0.01,0.06 -0.02,0.15 -0.02,0.09 -0.04,0.19 -0.04,0.28 0,0.03 0.01,0.06 0.01,0.09 -0.04,0.54 -0.09,1.4 -0.05,2.12 0.16,2.65 10.97,4.81 24.53,4.81 13.56,0 23.76,-2.27 24.55,-4.8 0.18,-0.6 0.12,-1.38 0.02,-1.95 0.02,-0.09 0.04,-0.18 0.04,-0.27 0,-1.96 -6,-3.64 -14.59,-4.39 -0.78,-3.1 -1.6,-7.59 -2.05,-13.68 h 41.55 c 1.9,0 3.44,-1.55 3.43,-3.44 v -67 c 0,-1.9 -1.54,-3.44 -3.44,-3.44 z m 1.44,70.45 c 0,0.38 -0.15,0.74 -0.42,1.01 -0.27,0.27 -0.63,0.42 -1.01,0.42 H 14.54 c -0.79,0 -1.44,-0.65 -1.44,-1.44 v -67 c 0,-0.79 0.65,-1.44 1.44,-1.44 h 98.91 c 0.79,0 1.44,0.65 1.44,1.44 v 67.01 z"
       id="path1" />
    <rect
       height="63.119999"
       width="97.5"
       x="15.25"
       y="9.3800001"
       id="rect30" />
  </g>
</svg>
